Coordinates
version=1
nRows=16
nColumns=36
inDegrees=yes

Units are S.I. units (second, meters, Newtons, ...)
If the header above contains a line with 'inDegrees', this indicates whether rotational values are in degrees (yes) or radians (no).

endheader
time	pelvis_tilt	pelvis_list	pelvis_rotation	pelvis_tx	pelvis_ty	pelvis_tz	hip_flexion_r	hip_adduction_r	hip_rotation_r	knee_angle_r	knee_angle_r_beta	ankle_angle_r	subtalar_angle_r	mtp_angle_r	hip_flexion_l	hip_adduction_l	hip_rotation_l	knee_angle_l	knee_angle_l_beta	ankle_angle_l	subtalar_angle_l	mtp_angle_l	lumbar_extension	lumbar_bending	lumbar_rotation	arm_flex_r	arm_add_r	arm_rot_r	elbow_flex_r	pro_sup_r	arm_flex_l	arm_add_l	arm_rot_l	elbow_flex_l	pro_sup_l
      4.90000000	    -17.28650694	     -1.87916366	      4.68827397	      0.48714852	      0.53471419	     -0.00080314	     89.81879284	    -27.22992524	      8.45783919	    115.63288932	      2.01817464	     49.07376757	     20.15052438	     -7.49999987	     88.27565372	    -29.87465108	      7.96339913	    112.86953400	      1.96994499	     42.96120217	     16.26139144	     -7.49999987	    -20.00366880	      1.45761370	     -2.19045571	     94.27364392	     11.80400585	     74.94104818	    129.51867881	    100.37032596	     84.84551492	     10.83589182	     75.78563857	    118.81527869	     87.27206672
      4.91666670	    -17.88034190	     -1.72925105	      4.73591036	      0.48652209	      0.53059979	     -0.00111604	     90.49946317	    -27.28563821	      8.62633304	    115.81136871	      2.02128970	     49.13171538	     19.99131558	     -7.49999987	     88.70097350	    -30.01544978	      7.87441042	    112.91645326	      1.97076389	     43.38682728	     16.94114989	     -7.49999987	    -19.19221292	      1.19132523	     -2.29761187	     93.71789239	     12.00620977	     74.55530177	    129.75709186	    100.20829933	     84.86020919	     10.82466982	     77.03089268	    119.57637930	     87.25691389
      4.93333330	    -18.04316358	     -1.73777416	      4.83723001	      0.48605473	      0.53076286	     -0.00121571	     90.67335310	    -27.37679674	      8.64971252	    115.89552432	      2.02275849	     49.19271472	     19.99393156	     -7.49999987	     88.81857878	    -29.98753901	      7.92276611	    112.88582705	      1.97022936	     43.52262627	     17.30342021	     -7.49999987	    -18.95690599	      1.21735654	     -2.39123790	     93.63715095	     12.32548648	     74.66816234	    129.85824789	     94.33772406	     85.00976107	     10.72681750	     77.67931248	    119.90935735	     84.37528164
      4.95000000	    -18.08933701	     -1.71753106	      4.82735779	      0.48628220	      0.53673265	     -0.00134169	     90.31675335	    -27.25994525	      8.38338388	    115.51911355	      2.01618888	     49.15555151	     19.79556579	     -7.49999987	     88.34413897	    -30.02515331	      7.64741602	    112.38786882	      1.96153835	     43.52325398	     17.49489592	     -7.49999987	    -19.01428910	      1.20463851	     -2.56385313	     93.24504689	     12.81298032	     75.24448256	    129.79047722	     99.65336238	     84.97064308	     10.59829524	     78.51596351	    119.41486162	     85.39452435
      4.96666670	    -18.20875545	     -1.60608077	      5.02482638	      0.48564021	      0.53381549	     -0.00059777	     90.47627931	    -27.39595641	      8.47838724	    115.40277090	      2.01415832	     49.18276530	     19.88753602	     -7.49999987	     88.20287916	    -29.82226124	      7.45923156	    112.13363507	      1.95710113	     43.73776725	     17.65556944	     -7.49999987	    -18.87839929	      1.19197307	     -2.82027617	     93.21308843	     13.41043552	     76.15130104	    129.43717186	     92.69769629	     84.76665389	     10.54249718	     78.95033737	    119.16490938	     82.77357484
      4.98333330	    -18.22132982	     -1.48939395	      5.06236612	      0.48577130	      0.53974654	     -0.00076108	     90.02332947	    -27.18433557	      8.23057027	    114.59986072	      2.00014489	     49.20506355	     19.89608044	     -7.49999987	     87.61847936	    -29.75612273	      6.87035146	    111.51055347	      1.94622631	     43.53321614	     17.72552520	     -7.49999987	    -18.82272395	      0.96475540	     -3.38758404	     92.68126462	     15.32382410	     78.58873447	    128.89676219	     99.44584281	     84.48376825	      9.86458168	     78.71881048	    118.59147901	     84.00994465
      5.00000000	    -18.25891214	     -1.45443801	      5.06243764	      0.48601076	      0.54305118	     -0.00111053	     89.57618959	    -27.07716757	      7.99865147	    114.02379812	      1.99009070	     49.18961469	     19.98752545	     -7.49999987	     87.08190220	    -29.67561892	      6.47288871	    110.76490850	      1.93321235	     43.63966643	     17.69476139	     -7.49999987	    -18.92242914	      0.89854130	     -3.60776159	     92.14987220	     15.10045942	     78.92587817	    128.77932436	     99.53491948	     84.43793555	      9.41015450	     77.86165932	    117.64671287	     82.96160368
      5.01666670	    -18.15024195	     -1.48772442	      5.29168695	      0.48641786	      0.54615199	     -0.00205783	     88.87271946	    -27.25654299	      7.64072656	    113.46963793	      1.98041878	     49.20775587	     20.01218292	     -7.49999987	     86.60132706	    -29.35578059	      6.19960659	    110.24652858	      1.92416491	     43.50928188	     17.23497851	     -7.49999987	    -19.17152578	      1.18632354	     -3.96000030	     92.24209679	     15.39981204	     79.96298320	    128.31829435	     93.19163758	     84.19404432	      9.48804058	     78.08051841	    117.70279404	     80.19508940
      5.03333330	    -18.07079996	     -1.55818570	      5.39979530	      0.48650246	      0.54969226	     -0.00147671	     88.26263645	    -27.29501548	      7.21189982	    112.94003823	      1.97117552	     49.16625586	     19.96881790	     -7.49999987	     86.06812412	    -29.27376067	      6.06145952	    109.73576745	      1.91525045	     43.54610149	     17.63429094	     -7.49999987	    -19.27946564	      1.26482669	     -3.95798144	     92.13568924	     15.56871118	     79.70244837	    128.31656973	     99.24337787	     83.94521896	     10.13414812	     77.97795651	    117.35961732	     82.53407398
      5.05000000	    -17.92456254	     -1.71485037	      5.50505067	      0.48638499	      0.55569859	     -0.00170440	     87.43287067	    -27.29581371	      6.62499014	    112.31534023	      1.96027249	     49.04690215	     19.85846002	     -7.49999987	     85.34200225	    -29.21752682	      5.80586918	    108.79682865	      1.89886288	     43.65861962	     17.84786609	     -7.49999987	    -19.29310320	      1.57256884	     -4.45773630	     91.79429078	     16.80917525	     82.05215544	    127.53104932	     93.42688163	     83.42997191	      9.79030980	     78.15055341	    117.25181950	     80.29772865
      5.06666670	    -17.97046960	     -1.69888154	      5.45097432	      0.48125051	      0.55510464	     -0.00476827	     87.46350260	    -27.35069481	      6.53701058	    111.90028437	      1.95302840	     48.79530210	     19.72777810	     -7.49999987	     85.13611948	    -28.98639429	      5.53032260	    108.42102680	      1.89230390	     43.96506504	     17.82738154	     -7.49999987	    -19.13910678	      1.89951371	     -4.44054402	     92.13588705	     16.05583319	     81.57088611	    127.42762114	     93.59050341	     83.25254142	      9.57430716	     77.96073249	    117.14394892	     80.32945480
      5.08333330	    -17.74991661	     -1.73311490	      5.30861192	      0.48183616	      0.56131824	     -0.00480081	     87.02459326	    -27.14326908	      6.35899183	    111.28991145	      1.94237538	     48.49961608	     19.36401892	     -7.49999987	     84.44973279	    -28.91054059	      5.11046544	    107.68045246	      1.87937844	     44.10711107	     17.88040250	     -7.49999987	    -19.11289507	      2.15033848	     -4.18943122	     92.70350611	     15.51797959	     81.02792685	    128.19926520	     94.07044002	     83.49361238	      9.67377382	     77.41999254	    116.46475170	     80.42402036
      5.10000000	    -17.87668393	     -1.74965924	      5.43254862	      0.48213365	      0.56216950	     -0.00455670	     86.82261943	    -27.25457845	      6.23900239	    110.79832778	      1.93379563	     48.34359192	     19.16118504	     -7.49999987	     84.25884924	    -28.64469423	      4.82693161	    107.16602178	      1.87039993	     44.19117959	     17.98871831	     -7.49999987	    -18.22367952	      2.31290093	     -4.41585352	     93.91714799	     17.87406626	     82.53349870	    127.62633877	     91.67689122	     84.61179513	      9.55008289	     76.89794351	    116.62767891	     79.87941858
      5.11666670	    -17.82519684	     -1.69752726	      5.53646541	      0.47677197	      0.57049160	      0.00405113	     86.28713803	    -26.74682175	      5.66357152	    109.92959170	      1.91863332	     47.99116201	     18.44365846	     -7.49999987	     83.75461731	    -28.53092894	      4.51129658	    106.02219965	      1.85043646	     43.15019747	     17.66986501	     -7.49999987	    -18.04415519	      1.96490008	     -4.36509570	     94.88668823	     16.53602411	     80.43950076	    127.82854666	     91.83921279	     85.31200752	      8.82629366	     75.65269059	    117.12660760	     79.85562837
      5.13333330	    -17.23168567	     -1.63455388	      5.67300296	      0.47767215	      0.58465597	      0.00340526	     84.50278965	    -25.98875431	      4.91692624	    108.40588357	      1.89203960	     47.36383808	     17.25433035	     -7.49999987	     81.88077935	    -28.44897458	      3.72609687	    104.04664952	      1.81595661	     42.27418346	     17.20817553	     -7.49999987	    -18.63038974	      1.68796924	     -4.93631283	     94.09146640	     19.04110025	     81.17884747	    126.59646723	     99.44878570	     85.26173043	      8.59047274	     74.76513141	    117.27618713	     81.03372845
      5.15000000	    -17.16386487	     -1.46865275	      5.67840479	      0.48432775	      0.60448537	     -0.00035833	     82.15905658	    -25.28016236	      4.05880408	    105.65881718	      1.84409424	     46.50390904	     16.11028395	     -7.49999987	     79.39098280	    -28.30057561	      2.13405357	    101.28497356	      1.76775627	     41.36232345	     16.57870763	     -7.49999987	    -18.22170712	      1.53520393	     -5.61504555	     92.83279128	     20.63399920	     83.94631199	    125.12322686	     97.13132836	     84.46799271	      6.85003910	     74.94557707	    116.11669615	     79.69904829
